<svg xmlns="http://www.w3.org/2000/svg" width="13" height="16" viewBox="0 0 13 16"><g><g><path fill="#fff" d="M2.334 9.385c.778-1.344-.25-1.638-.41-2.612C1.265 2.794 6.618.077 9.422 2.857c1.94 1.926.662 7.846-2.465 7.23-2.996-.588 1.467-5.3-.924-6.225C4.09 3.11 3.058 6.161 3.98 7.678c-.54 2.61-1.703 5.065-1.233 8.333 1.528-1.082 2.044-3.158 2.466-5.322.767.458 1.178.93 2.157 1.004 3.61.275 5.628-3.522 5.133-7.027C12.064 1.558 8.897-.023 5.518.348 2.848.639.184 2.75.073 5.77.006 7.614.541 8.996 2.334 9.385z"/></g></g></svg>