<svg xmlns="http://www.w3.org/2000/svg" width="16" height="13" viewBox="0 0 16 13"><g><g><path fill="#fff" d="M15.559.24a6.611 6.611 0 0 1-2.086.797A3.283 3.283 0 0 0 7.88 4.029 9.317 9.317 0 0 1 1.115.599 3.256 3.256 0 0 0 .67 2.25c0 1.14.58 2.145 1.46 2.732A3.264 3.264 0 0 1 .645 4.57v.04a3.288 3.288 0 0 0 2.632 3.22 3.315 3.315 0 0 1-1.482.055 3.285 3.285 0 0 0 3.065 2.28A6.585 6.585 0 0 1 .783 11.57c-.265 0-.526-.016-.783-.045A9.303 9.303 0 0 0 5.032 13c6.037 0 9.338-5 9.338-9.34l-.01-.424A6.61 6.61 0 0 0 16 1.538c-.589.26-1.22.437-1.885.517A3.3 3.3 0 0 0 15.56.24z"/></g></g></svg>