<svg xmlns="http://www.w3.org/2000/svg" width="18" height="18" viewBox="0 0 18 18"><g><g><path fill="#fff" d="M8.998 1.594c-2.506 0-2.734 0-3.645.114s-1.367.229-1.709.342c-.455.114-.797.343-1.139.57-.228.341-.455.684-.57 1.024-.113.343-.34.798-.34 1.71v7.291c.113.91.227 1.366.34 1.708.115.456.342.683.684 1.025.342.342.57.57 1.025.684.342.113.798.341 1.71.341h7.29c.91-.113 1.367-.228 1.708-.341.456-.115.684-.342 1.026-.684.341-.342.57-.569.683-1.025.114-.342.342-.798.342-1.708V8.999 5.354c-.114-.912-.228-1.367-.342-1.71-.114-.455-.342-.683-.683-1.024-.342-.342-.57-.57-1.026-.683-.341-.115-.797-.343-1.708-.343H8.998s2.507 0 0 0zm0-1.594h3.76c.91.113 1.594.228 2.164.455a4.79 4.79 0 0 1 1.595 1.025 4.791 4.791 0 0 1 1.025 1.595c.228.57.455 1.254.455 2.165v7.518c-.113.912-.227 1.595-.455 2.164-.228.57-.57 1.14-1.025 1.595a4.775 4.775 0 0 1-1.595 1.025c-.57.228-1.253.456-2.164.456H5.239c-.911-.114-1.595-.228-2.164-.456a4.776 4.776 0 0 1-1.595-1.025 4.781 4.781 0 0 1-1.025-1.595c-.228-.57-.456-1.252-.456-2.164v-3.76V5.24c.114-.911.228-1.596.456-2.165A4.79 4.79 0 0 1 1.48 1.48 4.79 4.79 0 0 1 3.075.455C3.645.228 4.328 0 5.239 0H9zm4.67 9.112c0 2.621-2.05 4.672-4.67 4.672s-4.67-2.05-4.67-4.672c0-2.62 2.05-4.67 4.67-4.67 2.507 0 4.557 2.05 4.67 4.67zM11.96 9c0-1.595-1.367-2.962-2.962-2.962-1.594 0-2.961 1.254-2.961 2.962 0 1.709 1.253 3.075 2.961 3.075 1.595 0 2.962-1.48 2.962-3.075zm1.823-5.924a1.14 1.14 0 1 1 0 2.279 1.14 1.14 0 0 1 0-2.279z"/></g></g></svg>